<svg width="2040" height="286" viewBox="0 0 2040 286" fill="none" xmlns="http://www.w3.org/2000/svg">
<g clip-path="url(#clip0_92_538)">
<path fill-rule="evenodd" clip-rule="evenodd" d="M1327 -223.518L1342.2 -231.944L1448.29 -168.498L1465.06 -158.381L1472.43 -153.923L1481.39 -148.49C1490.68 -142.842 1500.5 -136.758 1510.07 -130.232C1511.42 -129.315 1512.76 -128.388 1514.1 -127.451C1519.53 -123.614 1524.78 -119.528 1529.84 -115.208C1534.8 -110.972 1539.55 -106.502 1544.08 -101.812C1552.97 -92.571 1561.55 -82.028 1570.32 -69.582C1575.7 -61.95 1581.05 -54.004 1586.27 -46.165L1590.16 -40.312C1591.64 -38.084 1593.13 -35.855 1594.61 -33.63L1596.04 -31.5C1604.58 -18.837 1612.54 -8.39 1620.34 0.384003C1629.54 10.734 1639.54 19.249 1650.07 25.716L1651.18 26.388C1662.13 32.934 1674.77 37.938 1688.76 41.258C1701.02 44.171 1714.49 46.271 1731.13 47.865L1745.67 49.247C1755.3 50.169 1765.08 51.15 1774.61 52.331C1789.83 54.218 1803.28 56.865 1815.74 60.422C1828.23 64.006 1840.71 68.932 1852.83 75.055C1863.45 80.465 1873.84 86.382 1883.62 92.101L1887.31 94.271C1897.55 100.304 1907.76 106.355 1917.95 112.4L2024.51 176.115L2024.2 193.455L1913.32 127.136C1908.46 124.251 1903.59 121.366 1898.72 118.482L1887.27 111.707L1879.53 107.137L1876.95 105.62C1865.43 98.882 1855.4 93.266 1844.82 88.14C1832.53 82.22 1819.67 77.664 1806.6 74.601C1793.98 71.643 1780.08 69.56 1764.11 68.233C1756.87 67.632 1749.49 67.118 1742.21 66.636L1728.42 65.729L1719.75 65.145C1717.75 65.0046 1715.74 64.8499 1713.74 64.681C1699.94 63.515 1687.93 61.776 1677.19 59.391C1663.66 56.389 1651.44 51.734 1640.87 45.551L1639.83 44.934C1629.14 38.512 1619.05 29.839 1609.83 19.156C1601.64 9.66301 1593.44 -1.65099 1584.75 -15.434C1582.84 -18.471 1580.93 -21.5126 1579.03 -24.559L1572.51 -35.025C1568.81 -40.951 1565.04 -46.947 1561.27 -52.78C1552.64 -66.125 1544.34 -77.318 1535.89 -86.998C1527.13 -97.038 1517.2 -106.182 1506.36 -114.176C1495.64 -122.029 1484.32 -129.099 1473.69 -135.57C1465.58 -140.5 1457.47 -145.4 1449.37 -150.286L1440.53 -155.618L1327 -223.518ZM1359.42 -241.497L1457.02 -183.126C1465.29 -178.146 1473.57 -173.156 1481.86 -168.142L1490.15 -163.119C1500.08 -157.088 1511.76 -149.901 1523.02 -142.323C1534.18 -134.77 1544.52 -126.556 1553.77 -117.908C1563.17 -109.088 1572.43 -98.959 1581.3 -87.799C1588.7 -78.482 1596 -68.615 1603.1 -58.909L1606.78 -53.872C1616.51 -40.56 1624.94 -30.192 1633.34 -21.246C1642.7 -11.265 1652.76 -2.951 1663.26 3.487L1664.46 4.21701C1675.4 10.755 1687.93 15.93 1701.7 19.6C1713.57 22.76 1726.76 25.3 1743.22 27.596L1749.2 28.431C1761.21 30.117 1773.48 31.901 1785.46 34.094C1799.59 36.681 1813 40.121 1825.31 44.317C1837.57 48.517 1849.47 53.706 1861.7 60.184C1873.74 66.579 1885.3 73.298 1896.01 79.606L1905.03 84.942C1909.84 87.786 1914.65 90.632 1919.45 93.478L1928.65 98.941L1963.08 119.529L2024.84 156.461L2024.53 173.799L1933.42 119.303L1932.41 118.703C1928.98 116.651 1925.55 114.603 1922.12 112.546C1914.62 108.098 1907.12 103.648 1899.61 99.205L1888.26 92.508L1884.62 90.368C1874.82 84.635 1864.4 78.701 1853.73 73.268C1841.5 67.088 1828.9 62.118 1816.28 58.495C1803.73 54.91 1790.17 52.242 1774.85 50.343C1764.11 49.011 1753.06 47.933 1742.26 46.91L1731.31 45.871C1714.76 44.285 1701.39 42.201 1689.22 39.309C1675.81 36.121 1663.67 31.378 1653.11 25.201L1652.02 24.555C1641.31 18.125 1631.16 9.548 1621.85 -0.940002C1613.66 -10.156 1605.3 -21.21 1596.28 -34.735L1594.06 -38.075L1591.84 -41.415C1585.38 -51.126 1578.71 -61.168 1571.97 -70.73C1563.13 -83.257 1554.48 -93.876 1545.53 -103.196C1541.2 -107.67 1536.67 -111.945 1531.96 -116.009C1526.61 -120.639 1521.03 -125.005 1515.25 -129.091C1513.89 -130.043 1512.52 -130.987 1511.15 -131.921C1501.5 -138.497 1491.69 -144.568 1482.44 -150.195L1481.1 -151.003C1476.1 -154.041 1471.09 -157.073 1466.08 -160.1L1449.27 -170.244L1344.22 -233.069L1359.42 -241.497ZM1376.65 -251.049L1465.77 -197.756C1474.03 -192.777 1482.32 -187.789 1490.61 -182.778L1501.97 -175.904C1510.63 -170.636 1521.33 -164.054 1531.93 -157.183C1538.35 -152.993 1544.35 -148.793 1550.05 -144.513L1552.32 -142.801L1552.87 -142.371C1556.49 -139.585 1559.99 -136.762 1563.39 -133.879C1573.16 -125.579 1582.87 -116.186 1592.25 -105.959C1594.45 -103.558 1596.62 -101.136 1598.77 -98.694L1600.4 -96.839C1605.29 -91.245 1610.25 -85.376 1615.6 -78.931L1619.99 -73.631L1620.74 -72.726C1630.51 -60.97 1638.86 -51.742 1646.9 -43.814C1648.45 -42.2859 1650.03 -40.7867 1651.64 -39.317L1652.83 -38.227C1653.38 -37.729 1653.93 -37.217 1654.48 -36.728L1655.4 -35.946C1662.43 -29.818 1669.69 -24.436 1677.1 -19.894L1678.43 -19.094C1689.35 -12.566 1701.72 -7.154 1715.2 -3.004C1717.32 -2.35 1719.5 -1.71 1721.74 -1.077L1723.52 -0.57901C1732.5 1.90099 1742.53 4.24501 1754.37 6.63901L1755.56 6.879C1768.67 9.507 1782.68 12.419 1796.28 15.895C1797.97 16.33 1799.65 16.776 1801.32 17.232C1813.03 20.429 1824.28 24.152 1834.83 28.322C1846.55 32.985 1858.24 38.546 1870.57 45.32C1877.01 48.882 1883.48 52.557 1889.84 56.21L1898.7 61.304L1904.83 64.834L2025.19 136.82L2024.89 154.156L1930.89 97.936L1920.47 91.76C1915.67 88.91 1910.86 86.064 1906.04 83.217C1903.04 81.437 1900.04 79.655 1897.03 77.878L1893.42 75.758C1883.72 70.068 1873.38 64.115 1862.65 58.411C1850.32 51.885 1838.32 46.653 1825.97 42.421C1813.56 38.191 1800.06 34.727 1785.83 32.122C1772.81 29.74 1759.47 27.84 1746.49 26.028L1743.51 25.611C1727.12 23.327 1714.01 20.8 1702.23 17.661C1688.64 14.041 1676.28 8.93799 1665.5 2.495L1665.24 2.34299C1654.56 -4.07701 1644.32 -12.473 1634.8 -22.618C1626.87 -31.071 1618.9 -40.81 1609.81 -53.138L1608.33 -55.15L1604.78 -60.009C1597.65 -69.759 1590.32 -79.674 1582.87 -89.049C1573.93 -100.292 1564.6 -110.493 1555.15 -119.372C1545.82 -128.093 1535.39 -136.374 1524.14 -143.986C1512.95 -151.52 1501.69 -158.458 1491.19 -164.834C1483.09 -169.75 1474.99 -174.637 1466.91 -179.511L1458.02 -184.868L1361.45 -242.622L1376.65 -251.049ZM1378.68 -252.169L1393.88 -260.597L1507.72 -192.512L1512.49 -189.559L1523.11 -183.009C1529.02 -179.363 1534.92 -175.692 1540.8 -171.996C1552.81 -164.373 1563.31 -157.066 1572.88 -149.661C1582.9 -141.906 1593.02 -133.183 1602.97 -123.737L1604.65 -122.131C1613.86 -113.284 1622.65 -104.25 1629.67 -96.924L1634.07 -92.324C1641.48 -84.622 1650.77 -75.223 1660.52 -66.456C1662.4 -64.7671 1664.32 -63.1105 1666.26 -61.487C1674.37 -54.664 1682.66 -48.634 1691.02 -43.526L1692.52 -42.613C1703.38 -36.12 1715.56 -30.426 1728.74 -25.686C1741.15 -21.218 1753.87 -17.47 1764.2 -14.576L1770.89 -12.716C1785.31 -8.693 1796.51 -5.32601 1806.86 -1.90701C1819.92 2.41399 1832.49 7.26901 1844.23 12.523C1855.36 17.533 1866.87 23.415 1879.42 30.508C1885.34 33.874 1891.31 37.318 1897.18 40.716L1910.06 48.181C1911.24 48.861 1912.41 49.539 1913.58 50.215L2025.53 117.172L2025.23 134.507L1905.85 63.107L1899.44 59.422L1893.33 55.901C1886.15 51.773 1878.83 47.599 1871.54 43.568C1859.11 36.741 1847.34 31.146 1835.56 26.462C1834.05 25.862 1832.52 25.272 1830.97 24.692C1820.16 20.625 1808.68 17.021 1796.77 13.958C1787.68 11.633 1778.41 9.56499 1769.35 7.66199C1766.33 7.02699 1763.33 6.40901 1760.37 5.80801L1754.72 4.66699L1752.31 4.17499C1740.8 1.79899 1731.03 -0.530986 1722.3 -2.99799C1720.07 -3.62699 1717.9 -4.26599 1715.79 -4.91699C1702.45 -9.02499 1690.22 -14.372 1679.45 -20.81L1679.19 -20.966C1668.52 -27.379 1658.13 -35.544 1648.3 -45.237L1647.13 -46.402C1639.3 -54.229 1631.1 -63.36 1621.49 -74.947L1618.88 -78.11C1609.81 -89.06 1601.95 -98.333 1593.72 -107.31C1584.29 -117.596 1574.52 -127.048 1564.68 -135.403C1562.99 -136.834 1561.29 -138.245 1559.57 -139.635L1557.33 -141.425C1555.65 -142.752 1553.96 -144.061 1552.25 -145.352C1546.22 -149.92 1539.86 -154.396 1533.02 -158.86L1531.13 -160.08C1519.8 -167.381 1508.58 -174.238 1499.94 -179.47C1488.88 -186.174 1477.82 -192.83 1466.77 -199.488L1378.68 -252.169ZM1411.11 -270.143L1516.46 -207.131L1523.4 -202.873L1530.34 -198.619C1536.77 -194.68 1543.21 -190.736 1549.64 -186.759L1551.86 -185.373C1563.6 -178.034 1573.3 -171.598 1582.23 -165.223C1592.6 -157.823 1603.08 -149.676 1613.37 -141.006L1615.12 -139.526C1625.03 -131.126 1634.55 -122.584 1642.06 -115.767L1645.94 -112.243C1653.7 -105.226 1663.42 -96.595 1673.65 -88.287C1683.98 -79.892 1694.06 -72.724 1704.41 -66.422L1705.93 -65.505L1706.15 -65.371C1717.11 -58.821 1728.76 -52.995 1741.78 -47.561L1743.9 -46.68C1755.61 -41.858 1767.38 -37.549 1776.9 -34.158L1783.73 -31.728C1793.51 -28.234 1805.41 -23.884 1817.14 -19.211C1829.76 -14.181 1841.99 -8.74099 1853.49 -3.04199L1855.36 -2.112C1865.34 2.896 1875.85 8.60401 1888.24 15.743C1892.63 18.285 1897.01 20.837 1901.39 23.392L1907.96 27.226C1912.75 30.024 1917.53 32.821 1922.31 35.599L2025.88 97.539L2025.58 114.869L1914.6 48.492L1909.45 45.517L1895.43 37.387C1890.45 34.507 1885.41 31.609 1880.41 28.765C1867.81 21.642 1856.24 15.732 1845.06 10.696C1833.26 5.41501 1820.62 0.534986 1807.49 -3.80801L1805.32 -4.51999C1793 -8.52999 1780.73 -12.053 1770.84 -14.808L1764.65 -16.533C1754.34 -19.425 1741.69 -23.157 1729.42 -27.569C1716.82 -32.102 1705.14 -37.516 1694.67 -43.669L1693.19 -44.549C1682.57 -50.927 1672.04 -58.796 1661.86 -67.943C1652.11 -76.716 1642.87 -86.068 1635.51 -93.725L1629.91 -99.572C1622.66 -107.12 1613.7 -116.29 1604.35 -125.188C1594.35 -134.684 1584.18 -143.451 1574.11 -151.245C1564.52 -158.668 1553.98 -166.01 1541.87 -173.689C1535.02 -178.001 1528.06 -182.309 1521.26 -186.507L1518.35 -188.299C1515.16 -190.27 1511.97 -192.239 1508.77 -194.221L1395.91 -261.72L1411.11 -270.143ZM1428.33 -279.692L1558.6 -201.782C1561.29 -200.038 1563.98 -198.301 1566.68 -196.572L1570.73 -193.977C1577.54 -189.617 1584.58 -185.107 1591.44 -180.542C1601.31 -173.966 1611.39 -166.812 1621.44 -159.253L1623.44 -157.736C1633.01 -150.484 1642.44 -142.996 1650.25 -136.718L1658.09 -130.401C1666.08 -123.981 1675.89 -116.211 1685.95 -108.737C1697.16 -100.399 1707.96 -93.138 1718.88 -86.616C1729.83 -80.065 1741.32 -73.99 1754 -68.046L1756.07 -67.08C1766.42 -62.27 1776.8 -57.773 1785.53 -54.065L1795.48 -49.86C1807.93 -44.58 1817.85 -40.23 1827.12 -35.983C1839.47 -30.309 1851.41 -24.387 1862.63 -18.378C1868.08 -15.458 1873.56 -12.432 1878.94 -9.435L1890.75 -2.845C1892.9 -1.647 1895.05 -0.453996 1897.2 0.729004L2026.21 77.887L2025.91 95.217L1923.34 33.873L1916.29 29.766L1909.24 25.651C1904.8 23.06 1900.36 20.467 1895.92 17.881L1889.24 14.008L1886.93 12.682C1874.73 5.69401 1864.33 0.100008 1854.39 -4.83499C1842.88 -10.54 1830.6 -16.002 1817.89 -21.071L1815.78 -21.905C1804.57 -26.33 1793.45 -30.385 1784.27 -33.665L1774.94 -36.986C1765.36 -40.421 1753.86 -44.686 1742.55 -49.408C1730.34 -54.506 1718.88 -60.193 1708.48 -66.321L1706.74 -67.354C1696.45 -73.538 1686.44 -80.568 1676.2 -88.806L1674.92 -89.842C1666.84 -96.406 1658.38 -103.702 1647.86 -113.215L1640.53 -119.859C1632.99 -126.665 1623.89 -134.765 1614.66 -142.536C1604.29 -151.267 1593.78 -159.448 1583.4 -166.854L1581.71 -168.053C1572.65 -174.454 1562.74 -180.976 1550.7 -188.461C1546.41 -191.11 1542.12 -193.751 1537.82 -196.383L1531.39 -200.326C1526.76 -203.161 1522.14 -205.994 1517.51 -208.842L1413.13 -271.268L1428.33 -279.692ZM2023.84 213.075L1904.67 141.801L1896.64 137.046C1890.9 133.644 1885.16 130.242 1879.41 126.844L1870.78 121.751L1868.56 120.448C1858.83 114.745 1847.65 108.395 1835.93 102.97C1823.68 97.364 1810.59 93.187 1797.01 90.553C1784.3 88.087 1770.16 86.418 1753.78 85.45C1748.64 85.146 1743.42 84.873 1738.27 84.613L1725.57 83.979C1720.07 83.701 1714.5 83.407 1709.02 83.076C1692.73 82.093 1678.76 80.286 1666.31 77.556C1652.39 74.501 1639.87 69.69 1629.11 63.258L1628.89 63.128C1618.22 56.712 1608.14 48.031 1598.96 37.322C1590.66 27.649 1582.5 16.262 1574.02 2.51199C1570.44 -3.29401 1566.84 -9.24601 1563.34 -15.074L1558.08 -23.801C1555.73 -27.7183 1553.35 -31.6267 1550.96 -35.526C1542.45 -49.41 1534.4 -61.007 1526.35 -70.98C1517.7 -81.699 1507.99 -91.225 1497.49 -99.298C1486.86 -107.418 1475.57 -114.508 1464.96 -120.963C1457.51 -125.483 1450.05 -129.993 1442.59 -134.493L1431.79 -141.003L1309.78 -213.977L1324.97 -222.397L1439.49 -153.905L1440.24 -153.455C1451.02 -146.953 1461.83 -140.435 1472.65 -133.862L1476.01 -131.809C1485.59 -125.936 1495.61 -119.568 1505.17 -112.565C1515.85 -104.689 1525.64 -95.6758 1534.38 -85.683C1542.75 -76.094 1550.99 -64.976 1559.58 -51.696C1563.37 -45.83 1567.16 -39.797 1570.89 -33.835L1574.58 -27.905C1577.4 -23.385 1580.22 -18.864 1583.05 -14.367L1584.46 -12.14C1592.69 0.726985 1600.5 11.41 1608.31 20.463C1617.41 31.016 1627.36 39.638 1637.9 46.108L1638.98 46.761C1649.93 53.307 1662.64 58.213 1676.75 61.344C1687.58 63.747 1699.67 65.499 1713.56 66.672C1715.54 66.84 1717.56 66.996 1719.62 67.14L1728.31 67.727L1742.12 68.634C1749.37 69.116 1756.73 69.627 1763.94 70.225C1779.8 71.544 1793.61 73.612 1806.14 76.548C1819.08 79.585 1831.8 84.091 1843.94 89.941C1854.81 95.203 1865.16 101.029 1877.21 108.098L1882.1 110.978L1890.37 115.861L1899.31 121.156C1903.74 123.786 1908.11 126.38 1912.36 128.906L2024.15 195.763L2023.84 213.075ZM2023.72 222.039L2014.34 227.239L1895.93 156.421L1891.22 153.626C1884.75 149.787 1878.28 145.945 1871.8 142.108L1862.06 136.358C1851.79 130.304 1839.77 123.378 1827.07 117.77C1815.01 112.485 1801.74 108.6 1787.62 106.22C1774.95 104.083 1760.68 102.64 1743.99 101.809C1740.86 101.654 1737.73 101.507 1734.6 101.362L1722.27 100.793C1714.59 100.433 1706.8 100.041 1699.17 99.553C1683.09 98.524 1669.18 96.634 1656.62 93.778C1643.16 90.708 1630.97 86.018 1620.39 79.832L1619.29 79.179C1608.61 72.759 1598.5 64.133 1589.26 53.54C1580.83 43.888 1572.62 32.586 1564.16 18.99C1558.66 10.144 1553.18 0.964998 1547.89 -7.914C1545.66 -11.664 1543.42 -15.411 1541.18 -19.144C1532.64 -33.35 1524.73 -45.164 1516.98 -55.257C1508.32 -66.531 1498.78 -76.356 1488.64 -84.461C1478.23 -92.716 1466.91 -99.861 1456.22 -106.35C1448.47 -111.051 1440.71 -115.741 1432.95 -120.419L1423.05 -126.379L1303.46 -197.902L1303.68 -210.597L1307.74 -212.849L1430.75 -139.283L1431.65 -138.741C1442.38 -132.271 1453.14 -125.781 1463.91 -119.248C1474.5 -112.802 1485.75 -105.731 1496.26 -97.705C1506.63 -89.73 1516.23 -80.313 1524.78 -69.716C1532.77 -59.816 1540.78 -48.29 1549.25 -34.476C1551.62 -30.611 1554 -26.674 1556.35 -22.772L1563.36 -11.123C1566.32 -6.2103 1569.3 -1.31325 1572.31 3.56799C1580.86 17.436 1589.08 28.904 1597.43 38.631C1606.52 49.221 1616.47 57.864 1627.02 64.343L1628.07 64.98C1639.03 71.526 1651.74 76.416 1665.87 79.514C1678.42 82.268 1692.49 84.088 1708.88 85.08C1715.45 85.475 1722.15 85.818 1728.71 86.146L1738.12 86.616C1743.28 86.876 1748.51 87.149 1753.65 87.452C1769.95 88.416 1784 90.075 1796.62 92.522C1810.06 95.132 1823 99.26 1835.08 104.794C1846.43 110.044 1857.15 116.061 1869.76 123.481C1881.04 130.131 1892.29 136.807 1903.52 143.471L2023.84 215.428L2023.72 222.039ZM1997.08 236.784L1887.16 171.041C1875.88 164.331 1864.6 157.637 1853.3 150.961L1850.79 149.481C1840.68 143.542 1829.87 137.457 1818.22 132.501C1806.26 127.452 1792.89 123.741 1778.47 121.474C1765.77 119.477 1751.88 118.128 1734.75 117.226L1720.08 116.463C1710.13 115.938 1700.02 115.363 1690.16 114.596C1674.34 113.366 1660.54 111.276 1647.99 108.209C1634.3 104.868 1621.88 99.894 1611.05 93.426L1610.81 93.283C1600.08 86.836 1589.92 78.318 1580.59 67.961C1571.99 58.401 1563.66 47.302 1555.14 34.028C1548.97 24.428 1542.89 14.418 1536.98 4.633L1531.94 -3.71301L1530.65 -5.83301C1522.76 -18.776 1515.77 -29.278 1508.84 -38.609L1507.83 -39.967C1499.13 -51.559 1489.7 -61.557 1479.8 -69.683C1470.17 -77.572 1459.91 -84.207 1447.47 -91.745C1436.42 -98.4315 1425.36 -105.102 1414.29 -111.757L1303.1 -178.254L1303.41 -195.592L1422.01 -124.662L1439.03 -114.397C1444.41 -111.149 1449.79 -107.896 1455.17 -104.637L1457.95 -102.94C1467.74 -96.943 1477.95 -90.375 1487.38 -82.892C1497.4 -74.892 1506.82 -65.182 1515.37 -54.035L1516.66 -52.346C1523.96 -42.686 1531.43 -31.462 1539.45 -18.11C1540.93 -15.642 1542.41 -13.167 1543.89 -10.69L1546.1 -6.97101C1551.42 1.94399 1556.92 11.162 1562.45 20.051C1570.97 33.741 1579.24 45.127 1587.73 54.858C1596.85 65.314 1606.82 73.888 1617.36 80.362L1618.47 81.032C1629.43 87.584 1642.11 92.529 1656.16 95.732C1668.8 98.612 1682.82 100.515 1699.03 101.553C1706.66 102.041 1714.44 102.433 1722.12 102.793L1729.75 103.146C1734.46 103.363 1739.17 103.578 1743.87 103.812L1746.62 103.955C1762.04 104.795 1775.37 106.186 1787.28 108.195C1801.23 110.548 1814.34 114.387 1826.25 119.606C1837.98 124.786 1849.16 131.118 1858.89 136.828L1861.03 138.086C1867.31 141.792 1873.59 145.505 1879.86 149.226L1894.88 158.137L2012.29 228.358L1997.08 236.784ZM1979.88 246.347L1844.63 165.462L1841.2 163.479C1831.55 157.909 1820.83 151.899 1809.45 147.171C1797.59 142.245 1784.2 138.577 1769.63 136.271L1767.87 135.998C1756.11 134.204 1743.13 132.865 1727.29 131.811L1717.72 131.184C1705.83 130.396 1693.71 129.538 1681.96 128.374C1666.43 126.835 1652.8 124.472 1640.29 121.15C1626.8 117.57 1614.45 112.458 1603.57 105.959L1603.31 105.804C1592.54 99.332 1582.3 90.948 1572.86 80.881C1564.04 71.472 1555.54 60.645 1546.9 47.779C1540.09 37.642 1533.49 27.182 1527.08 16.907L1523.26 10.769C1514.23 -3.74399 1506.51 -15.165 1498.98 -25.173C1490.2 -36.839 1480.8 -46.879 1471.04 -55.011C1460.53 -63.771 1448.86 -71.027 1438.74 -77.142C1427.67 -83.84 1416.6 -90.494 1405.55 -97.137L1302.77 -158.609L1303.07 -175.939L1413.27 -110.035C1424.3 -103.395 1435.37 -96.731 1446.44 -90.027L1448.81 -88.587C1460.12 -81.679 1469.61 -75.44 1478.54 -68.131C1488.32 -60.09 1497.64 -50.208 1506.23 -38.759L1506.77 -38.036L1507.31 -37.308C1514.56 -27.531 1521.87 -16.478 1530.22 -2.68399L1533.3 2.414C1535.34 5.79264 1537.39 9.16863 1539.44 12.542C1542.37 17.372 1545.33 22.22 1548.33 27.016C1549.07 28.203 1549.82 29.369 1550.57 30.548L1552.49 33.594L1553.46 35.114C1562.03 48.477 1570.43 59.66 1579.11 69.307C1588.3 79.513 1598.3 87.962 1608.86 94.439L1610.03 95.151C1621.03 101.72 1633.64 106.771 1647.52 110.161C1660.18 113.253 1674.08 115.359 1690.01 116.598C1699.88 117.366 1710 117.941 1719.95 118.466L1734.65 119.232C1751.67 120.123 1765.49 121.466 1778.16 123.457C1792.42 125.7 1805.64 129.365 1817.44 134.35C1829.94 139.664 1841.51 146.324 1852.29 152.69C1863.6 159.37 1874.88 166.072 1886.14 172.768L1995.07 237.915L1979.88 246.347ZM1962.63 255.884L1835.89 180.082L1832.46 178.089C1822.82 172.491 1812.11 166.45 1800.75 161.711C1788.96 156.791 1775.61 153.046 1761.07 150.581L1759.44 150.308C1748.22 148.459 1735.66 146.948 1720.22 145.588L1717.94 145.39C1712.81 144.951 1707.73 144.51 1702.69 144.049L1700.01 143.801C1697.77 143.591 1695.54 143.377 1693.32 143.157C1690 142.827 1686.68 142.479 1683.36 142.113C1681.73 141.931 1680.11 141.745 1678.48 141.553L1674.4 141.061C1659.16 139.153 1645.71 136.478 1633.3 132.883C1620.01 129.037 1607.74 123.778 1596.82 117.255C1585.9 110.719 1575.47 102.43 1565.83 92.592C1556.81 83.389 1548.13 72.872 1539.3 60.439C1538.09 58.731 1536.88 57.017 1535.69 55.297C1529.78 46.801 1523.98 38.025 1518.4 29.497L1513.74 22.35C1507.49 12.813 1501.92 4.693 1496.67 -2.522L1496.1 -3.29199C1494.24 -5.84213 1492.34 -8.36901 1490.41 -10.872C1481.49 -22.448 1472.05 -32.407 1462.34 -40.469C1452.36 -48.752 1441.82 -55.404 1430.06 -62.631L1302.42 -138.964L1302.73 -156.294L1404.53 -95.406C1415.57 -88.772 1426.63 -82.12 1437.71 -75.421L1439.81 -74.148C1449.35 -68.344 1460.07 -61.539 1469.76 -53.465C1479.4 -45.439 1488.69 -35.513 1497.38 -23.961L1498.43 -22.567C1505.57 -12.974 1512.95 -1.98999 1521.56 11.834L1525.4 18.001C1531.84 28.321 1538.45 38.815 1545.24 48.903C1553.95 61.863 1562.5 72.773 1571.4 82.257C1580.67 92.152 1590.72 100.443 1601.29 106.924L1602.55 107.684C1613.58 114.279 1626.1 119.462 1639.77 123.091C1652.39 126.443 1666.12 128.824 1681.76 130.372C1694.76 131.661 1708.19 132.574 1721.28 133.432L1725.96 133.737L1729.5 133.975C1744.99 135.054 1757.72 136.424 1769.31 138.255C1783.71 140.531 1796.96 144.155 1808.68 149.027C1821.3 154.271 1833.17 161.142 1843.62 167.197L1977.83 247.466L1962.63 255.884ZM1945.43 265.443L1827.15 194.704L1822.56 192.024C1813.23 186.594 1802.94 180.809 1792.12 176.166C1780.28 171.085 1767.42 167.261 1752.79 164.477L1751.24 164.186C1739.83 162.065 1727.4 160.286 1711.33 158.474L1705.62 157.832C1693.64 156.476 1680.26 154.877 1667.37 152.886C1652.42 150.578 1639.17 147.576 1626.86 143.71C1613.79 139.607 1601.59 134.204 1590.62 127.647L1590.35 127.482L1589 126.643C1588.16 126.13 1587.33 125.619 1586.5 125.088C1578.76 120.114 1571.25 114.337 1564.11 107.851C1563.75 107.524 1563.38 107.207 1563.02 106.876L1562.78 106.644C1561.63 105.576 1560.49 104.493 1559.36 103.396C1550.15 94.412 1541.27 84.219 1532.23 72.233L1530.72 70.226C1523.45 60.504 1516.36 50.423 1508.18 38.561L1506.09 35.524C1496.83 22.146 1489.39 12.052 1482.11 2.98599C1472.87 -8.51601 1463.57 -18.008 1453.69 -26.034C1443.59 -34.241 1432.61 -41.111 1421.31 -48.01L1302.08 -119.315L1302.39 -136.651L1429.03 -60.914L1432.88 -58.538C1443.03 -52.244 1452.29 -46.212 1461.07 -38.922C1470.66 -30.952 1480.01 -21.101 1488.84 -9.642C1491.46 -6.23725 1494.02 -2.79013 1496.53 0.697998L1497.41 1.927C1502.14 8.547 1507.17 15.943 1512.73 24.469L1516.3 29.936C1522.13 38.869 1528.24 48.116 1534.53 57.136C1535.57 58.63 1536.62 60.1194 1537.68 61.604C1546.57 74.121 1555.31 84.717 1564.41 93.999C1573.78 103.566 1583.89 111.695 1594.48 118.181L1595.8 118.979C1606.86 125.591 1619.29 130.917 1632.74 134.811C1645.26 138.436 1658.81 141.131 1674.15 143.051L1675.8 143.244C1679.62 143.711 1683.45 144.145 1687.27 144.547C1689.23 144.754 1691.19 144.955 1693.17 145.15L1696.44 145.47L1701.16 145.917L1702.6 146.049C1706.37 146.393 1710.15 146.73 1713.96 147.062L1720.05 147.588C1736.17 149.008 1749.15 150.595 1760.74 152.561C1775.13 155.001 1788.33 158.701 1799.98 163.563C1812.61 168.833 1824.45 175.735 1834.88 181.82L1960.62 257.021L1945.43 265.443ZM1910.97 284.53L1809.67 223.95L1806.2 221.901C1803.95 220.569 1801.69 219.243 1799.42 217.923L1796.73 216.357L1795.16 215.448L1792.48 213.916C1786.75 210.643 1781.08 207.518 1775.26 204.503L1775.19 204.471C1762.64 199.054 1749.73 194.633 1736.8 191.331L1734.57 190.768C1724.33 188.218 1713.12 185.868 1698.9 183.291L1689.45 181.596C1687.91 181.319 1686.4 181.045 1684.9 180.772L1681.17 180.085L1678.65 179.615L1675.06 178.939L1673.27 178.595L1669.99 177.96L1668.04 177.575L1664.74 176.917L1662.96 176.551L1659.43 175.823C1658.48 175.624 1657.54 175.419 1656.59 175.215C1655.85 175.058 1655.12 174.903 1654.38 174.742C1640 171.598 1627.13 167.945 1615.05 163.579C1611.87 162.429 1608.73 161.213 1605.64 159.933C1596.47 156.13 1587.71 151.751 1579.51 146.866L1579.23 146.704C1569.31 140.724 1559.62 133.724 1550.44 125.81L1549.3 124.815C1548.69 124.285 1548.08 123.763 1547.48 123.225C1537.93 114.674 1528.66 105.122 1519.15 94.023C1510.68 84.137 1502.3 73.684 1494.43 63.739L1491.4 59.905C1481.57 47.503 1473.7 38.145 1466.05 29.745C1457.14 19.97 1447.29 10.721 1436.73 2.20999C1426.87 -4.65301 1416.59 -11.027 1407.38 -16.617L1403.64 -18.874L1301.4 -80.023L1301.7 -97.361L1411.54 -31.67L1414.9 -29.629C1424.46 -23.796 1434.46 -17.532 1444.1 -10.585C1454.31 -1.90366 1463.8 7.58497 1472.48 17.789L1473.96 19.539C1480.88 27.779 1488.11 37.051 1497.02 49.124L1498.31 50.868C1506.39 61.854 1515.09 73.548 1523.99 84.618C1533.31 96.221 1542.45 106.158 1551.92 114.999C1561.82 124.246 1572.41 132.285 1583.42 138.898L1583.78 139.113C1594.91 145.763 1607.16 151.367 1620.18 155.768C1632.47 159.922 1645.62 163.274 1660.37 166.015C1673.09 168.377 1685.9 170.332 1701.05 172.503L1702.58 172.721C1719.68 175.166 1732.55 177.405 1744.3 179.978C1757.51 182.878 1770.45 186.868 1783 191.907C1794.57 197.687 1805.87 204.262 1817.38 211.05L1926.16 276.108L1910.97 284.53ZM1891.7 295.214L1876.51 303.636L1792.18 253.204C1781.89 247.048 1771.78 241.031 1761.51 235.227L1758.03 233.277C1746.27 227.457 1733.91 222.136 1721.27 217.447C1709.56 213.692 1697.21 210.129 1683.56 206.568L1675.3 204.427C1664.33 201.58 1653.14 198.628 1642.09 195.454C1628.18 191.454 1615.69 187.177 1603.88 182.378C1591.94 177.52 1580.5 171.885 1569.85 165.615L1567.97 164.498C1557.08 157.956 1546.41 150.381 1536.24 141.978C1526.43 133.873 1516.79 124.935 1506.76 114.654L1504.89 112.723C1497.08 104.676 1489.55 96.579 1480.86 87.184L1478.76 84.904C1468.76 74.085 1459.5 64.548 1450.4 55.718C1440.43 46.848 1430.05 38.517 1419.51 30.926C1409.22 24.256 1398.6 17.824 1388.49 11.771L1300.7 -40.732L1301.01 -58.061L1396.58 -0.897003C1407.87 5.878 1417.5 11.807 1426.98 18.146C1437.22 25.914 1447.31 34.574 1456.95 43.854L1458.73 45.754C1466.45 54.049 1474.49 63.116 1483.22 73.369L1489.1 80.279C1497.04 89.57 1504.13 97.712 1511.45 105.735C1521.29 116.5 1530.8 125.802 1540.53 134.169C1545.59 138.521 1550.83 142.66 1556.23 146.576C1557.11 147.211 1557.99 147.829 1558.88 148.452L1560.18 149.374C1561.12 150.022 1562.06 150.651 1563 151.281L1564.28 152.146L1565.2 152.749L1566.14 153.349C1566.95 153.873 1567.75 154.399 1568.57 154.911L1569 155.179C1570.12 155.877 1571.23 156.57 1572.35 157.244L1572.81 157.514C1583.98 164.184 1596.06 170.033 1608.72 174.896C1620.76 179.523 1633.52 183.51 1647.73 187.084C1660.52 190.304 1673.76 193.224 1685.48 195.752L1688.37 196.375C1703.22 199.569 1716.41 202.729 1728.62 206.019C1741.53 210.242 1754.03 215.155 1765.78 220.622C1776.87 226.612 1787.68 232.995 1797.86 239.088L1891.7 295.214ZM1857.25 314.3L1842.05 322.726L1764.6 276.406C1756.67 271.661 1748.71 266.947 1740.74 262.263C1729.13 255.874 1717.29 249.918 1705.24 244.408C1693.45 239.497 1681.18 234.752 1667.73 229.898L1654.71 225.356C1646.38 222.444 1637.93 219.469 1629.63 216.455C1616.06 211.522 1603.93 206.621 1592.54 201.472C1580.33 195.952 1568.53 189.806 1557.48 183.204C1546.19 176.43 1535.29 169.027 1524.83 161.029C1514.9 153.441 1504.88 145.113 1494.2 135.569C1486.15 128.379 1478.06 120.974 1470.17 113.739L1464.52 108.552C1454.03 99.115 1444.15 90.612 1434.28 82.534C1423.87 74.5761 1413.16 67.0044 1402.19 59.834L1399.2 58.002C1388.71 51.599 1378.21 45.317 1368.85 39.722L1300.02 -1.43799L1300.32 -18.777L1376.63 26.855C1384.54 31.585 1392.31 36.253 1399.99 40.967L1402.92 42.771L1405.83 44.581C1407.14 45.396 1408.46 46.206 1409.77 47.027C1420.54 54.4164 1430.99 62.2732 1441.08 70.575C1450.66 79.082 1460.48 88.328 1470.29 98.055L1479.49 107.192C1485.97 113.609 1492.57 120.115 1499.17 126.432L1500.2 127.409L1501.22 128.377C1509.87 136.567 1518.18 143.89 1526.49 150.625L1527.74 151.631C1528.28 152.068 1528.83 152.513 1529.37 152.946C1539.41 160.928 1549.85 168.246 1560.5 174.676L1562.03 175.59C1573.15 182.235 1585.09 188.31 1597.5 193.643C1609.14 198.643 1621.51 203.253 1635.32 207.737C1638.07 208.627 1640.83 209.51 1643.6 210.386C1645.08 210.853 1646.56 211.314 1648.05 211.776C1649.28 212.163 1650.52 212.553 1651.76 212.936C1655.16 213.993 1658.57 215.04 1661.95 216.076L1674.26 219.839C1687.58 223.917 1700.48 228.257 1712.57 232.729C1724.77 237.788 1736.74 243.387 1748.44 249.509C1758.44 255.245 1768.22 261.059 1778.84 267.405L1857.25 314.3ZM1300.37 -21.08L1300.67 -38.411L1385.3 12.202C1395.93 18.558 1407.24 25.367 1418.38 32.581C1428.82 40.101 1439.14 48.389 1449.04 57.187C1458.07 65.958 1467.31 75.469 1477.28 86.265L1481.85 91.205C1489.22 99.175 1497.25 107.784 1505.33 116.055C1515.41 126.39 1525.1 135.375 1534.96 143.525C1545.2 151.989 1555.95 159.619 1566.92 166.209L1567.43 166.515C1578.56 173.167 1590.57 179.128 1603.12 184.237C1614.99 189.065 1627.55 193.366 1641.54 197.38C1654.93 201.227 1668.96 204.86 1681.33 208.065L1684.5 208.891C1697.6 212.334 1709.45 215.765 1720.6 219.341C1733.15 223.994 1745.44 229.286 1757.09 235.05C1768.53 241.433 1779.73 248.092 1791.14 254.923L1874.48 304.763L1859.29 313.182L1775.89 263.309C1766.93 257.969 1758.87 253.2 1750.57 248.423L1749.4 247.753C1737.62 241.589 1725.58 235.954 1713.3 230.865C1701.13 226.367 1688.2 222.014 1674.84 217.925L1662.16 214.047C1658.93 213.06 1655.69 212.063 1652.44 211.055C1646.93 209.35 1641.43 207.609 1635.94 205.832C1622.18 201.367 1609.87 196.778 1598.29 191.802C1585.95 186.505 1574.1 180.472 1563.05 173.871C1552.03 167.296 1541.09 159.704 1530.62 151.382L1529.73 150.672L1528.85 149.958C1520.4 143.16 1511.96 135.765 1503.17 127.47L1501.43 125.823C1501.14 125.547 1500.85 125.269 1500.56 124.989C1493.95 118.656 1487.32 112.133 1480.83 105.698L1471.7 96.637C1461.86 86.88 1452.01 77.611 1442.39 69.057C1432.23 60.7008 1421.71 52.7932 1410.87 45.357L1409.52 44.52C1400.21 38.691 1390.79 33.005 1381.2 27.259L1369.36 20.179L1300.37 -21.081V-21.08ZM1301.36 -77.715L1402.61 -17.161L1406.33 -14.909C1415.52 -9.337 1425.77 -2.98499 1435.52 3.80801C1445.95 12.21 1455.72 21.388 1464.57 31.09L1465.58 32.207C1472.69 40.067 1480.09 48.885 1489.2 60.354L1494.56 67.121C1501.94 76.432 1509.74 86.118 1517.63 95.323C1527.2 106.491 1536.53 116.106 1546.14 124.713C1546.66 125.181 1547.19 125.633 1547.72 126.096C1548.47 126.751 1549.21 127.412 1549.96 128.056L1550.25 128.296C1558.67 135.469 1567.5 141.894 1576.58 147.441L1578.02 148.313L1578.48 148.585C1586.76 153.515 1595.6 157.938 1604.87 161.78C1608.01 163.08 1611.18 164.308 1614.37 165.462C1626.51 169.854 1639.46 173.528 1653.96 176.698L1655.06 176.935L1659.02 177.779L1660.72 178.132C1661.93 178.382 1663.14 178.633 1664.36 178.88L1667.61 179.529L1670.29 180.055L1673.47 180.67L1676.72 181.287L1679.72 181.85L1684.69 182.767L1689.76 183.686L1698.55 185.261C1713.76 188.017 1725.51 190.512 1736.31 193.271C1749.09 196.535 1761.9 200.916 1774.37 206.296L1776.28 207.296C1777.07 207.714 1777.87 208.127 1778.66 208.549L1779.76 209.148C1780.83 209.72 1781.9 210.296 1782.96 210.877L1784.05 211.481C1785.11 212.063 1786.17 212.645 1787.22 213.235L1788.83 214.145C1789.71 214.638 1790.58 215.131 1791.46 215.631L1794.5 217.379L1796.58 218.581C1800.59 220.911 1804.6 223.279 1808.64 225.672L1908.94 285.656L1893.74 294.079L1800.93 238.574C1790.07 232.071 1778.47 225.191 1766.66 218.814C1754.81 213.302 1742.23 208.354 1729.2 204.094C1716.91 200.782 1703.69 197.614 1688.8 194.412L1683.88 193.35C1672.3 190.845 1660.19 188.152 1648.22 185.138C1634.12 181.586 1621.43 177.624 1609.45 173.02C1596.88 168.19 1584.9 162.394 1573.84 155.79C1562.83 149.234 1552.04 141.41 1541.84 132.644C1532.15 124.308 1522.69 115.063 1512.94 104.379C1504.62 95.276 1496.59 85.963 1488.99 77.048L1483.74 70.878C1474.69 60.289 1466.39 50.974 1458.39 42.442C1448.62 33.046 1438.47 24.333 1428.16 16.509C1417.85 9.622 1407.47 3.272 1395.08 -4.142L1301.06 -60.374L1301.36 -77.715ZM1420.28 -46.291C1431.53 -39.424 1442.45 -32.591 1452.44 -24.472C1462.21 -16.528 1471.41 -7.134 1480.55 4.246L1481.52 5.45599C1488.46 14.168 1495.62 23.92 1504.45 36.669L1509.05 43.339C1516.76 54.479 1523.57 64.089 1530.63 73.446C1539.74 85.512 1548.68 95.779 1557.97 104.836C1559.95 106.768 1561.96 108.626 1564 110.443C1564.49 110.881 1564.98 111.333 1565.48 111.764L1566.4 112.548C1572.51 117.805 1578.85 122.558 1585.37 126.744C1586.39 127.394 1587.41 128.019 1588.43 128.644L1589.6 129.371C1600.71 136.009 1613.04 141.477 1626.27 145.625C1638.67 149.522 1652.02 152.546 1667.07 154.869C1678.87 156.693 1691.07 158.187 1702.23 159.467L1712.2 160.592C1728.44 162.442 1740.92 164.26 1752.42 166.45C1766.89 169.202 1779.62 172.983 1791.33 178.011C1803.87 183.394 1815.71 190.326 1826.13 196.439L1943.38 266.561L1928.19 274.983L1818.41 209.327L1814.82 207.217C1804.16 200.957 1794.26 195.289 1783.78 190.059C1771.12 184.972 1758.05 180.946 1744.72 178.02L1743.2 177.69C1732.53 175.395 1720.9 173.36 1706.08 171.2L1697.26 169.932C1685.84 168.28 1673.16 166.353 1660.73 164.044C1646.07 161.319 1633.02 157.991 1620.82 153.868C1607.93 149.511 1595.81 143.968 1584.8 137.391L1584.55 137.24C1583.96 136.882 1583.37 136.507 1582.78 136.142L1581.35 135.261C1581.11 135.113 1580.87 134.963 1580.63 134.812C1574.62 130.972 1568.73 126.702 1563.03 122.045L1560.79 120.199C1560.41 119.884 1560.05 119.555 1559.67 119.235C1557.5 117.381 1555.37 115.48 1553.28 113.533C1543.9 104.779 1534.83 94.91 1525.55 83.36C1517.3 73.096 1509.17 62.229 1501.55 51.885L1499.92 49.677C1489.74 35.83 1481.74 25.595 1474.01 16.489C1465.24 6.18116 1455.65 -3.40074 1445.33 -12.163C1434.43 -20.019 1423.17 -26.954 1412.57 -33.389L1301.74 -99.673L1302.04 -117.007L1420.28 -46.291ZM1301.7 -211.786L1301.48 -199.073L1301.47 -199.083L1301.08 -177.132L1301.09 -177.129L1300.4 -137.842L1300.41 -137.84L1300.1 -120.499L1300.1 -120.501L1299.72 -98.551L1299.72 -98.55L1299.38 -78.901L1299.38 -78.899L1299.07 -61.546L1299.07 -61.551L1298.68 -39.599L1298.69 -39.594L1298.39 -22.264L1298.39 -22.266L1298 -0.31601L1378.95 48.097C1386.36 52.5364 1393.75 57.0118 1401.12 61.523C1412.04 68.6562 1422.68 76.1879 1433.04 84.103C1442.85 92.139 1452.72 100.622 1463.18 110.032L1465.87 112.508C1474.69 120.598 1483.8 128.962 1492.86 137.062C1503.58 146.639 1513.65 154.998 1523.62 162.62C1533.52 170.183 1543.74 177.19 1554.05 183.47L1556.46 184.92C1567.57 191.562 1579.43 197.744 1591.71 203.293C1603.15 208.464 1615.33 213.385 1628.95 218.335C1637.26 221.352 1645.71 224.33 1654.05 227.243L1667.06 231.783C1680.47 236.623 1692.71 241.356 1704.44 246.241C1716.43 251.724 1728.21 257.648 1739.76 264.001L1742.74 265.756C1750.38 270.257 1758 274.782 1765.6 279.333L1842.02 325.033L1859.24 315.487L1859.25 315.492L1878.49 304.824L1878.49 304.823L1895.71 295.279L1895.71 295.277L1912.95 285.718L1912.95 285.717L1930.17 276.173H1930.17L1945.36 267.747L1945.38 267.757L1964.63 257.087L1964.61 257.077L1979.82 248.652L1979.83 248.659L1999.08 237.979L1999.06 237.973L2014.29 229.538L2014.3 229.548L2025.7 223.228L2025.86 214.278L2025.82 214.259L2026.12 196.933L2026.15 196.945L2026.53 174.994L2026.51 174.983L2026.82 157.636L2026.83 157.646L2027.22 135.694L2027.21 135.691L2027.51 118.357L2027.52 118.359L2027.9 96.407L2027.89 96.401L2028.23 76.765L1898.2 -1.005C1895.32 -2.59342 1892.44 -4.18976 1889.56 -5.79401L1879.91 -11.184C1875.42 -13.684 1870.86 -16.206 1866.31 -18.671L1863.58 -20.142C1852.32 -26.169 1840.34 -32.111 1827.96 -37.802L1824.35 -39.446C1815.59 -43.409 1806.08 -47.55 1794.32 -52.522L1787.94 -55.214C1778.34 -59.281 1766.5 -64.392 1754.85 -69.859C1742.23 -75.772 1730.8 -81.815 1719.91 -88.332C1709.47 -94.546 1699.23 -101.418 1688.59 -109.265L1687.14 -110.341C1677.15 -117.767 1667.39 -125.489 1659.44 -131.882L1651.5 -138.279C1643.68 -144.565 1634.24 -152.065 1624.65 -159.329C1613.91 -167.473 1603.11 -175.17 1592.55 -182.206C1587.39 -185.638 1582.14 -189.036 1576.96 -192.361L1571.81 -195.661C1567.75 -198.255 1563.7 -200.861 1559.66 -203.478L1428.37 -282L1393.92 -262.904H1393.92L1340.21 -233.134L1340.22 -233.131L1325.01 -224.702L1325.01 -224.705L1301.7 -211.786Z" fill="url(#paint0_linear_92_538)"/>
</g>
<defs>
<linearGradient id="paint0_linear_92_538" x1="1472.93" y1="-110.015" x2="1787.65" y2="247.319" gradientUnits="userSpaceOnUse">
<stop stop-color="#EF7C29" stop-opacity="0"/>
<stop offset="0.53022" stop-color="#EF7C29" stop-opacity="0.32"/>
<stop offset="1" stop-color="#EF7C29" stop-opacity="0"/>
</linearGradient>
<clipPath id="clip0_92_538">
<rect width="2040" height="286" fill="white"/>
</clipPath>
</defs>
</svg>
