<svg width="834" height="821" viewBox="0 0 834 821" fill="none" xmlns="http://www.w3.org/2000/svg">
<path d="M45.18 704.07C60.83 704.07 75.88 710.44 75.88 728.42C75.88 739.28 69.4 751.49 54.75 752.95C60.2 754.73 65.05 759.86 67.92 764.38C68.31 765.01 76.05 777.29 80.92 783.38C86.49 790.47 90.17 793.07 96.92 793.17V794.47H84.32C70.2 794.47 59.93 791.41 54 781.08C50.86 775.61 45 762.83 43.24 758.97C40.74 753.58 37.86 750.85 34.5 750.27V749H38.5C45.44 748.93 52.5 745.39 54.8 734.08C55.206 732.023 55.3672 729.925 55.28 727.83C54.76 715.48 48.53 709.96 40.05 709.75C36.63 709.61 31.88 709.75 30.26 709.75V785C30.2994 787.17 31.1911 789.237 32.7424 790.755C34.2936 792.272 36.3799 793.119 38.55 793.11H40.16V794.41H0.880005V793.11H2.51001C4.65736 793.111 6.72095 792.277 8.26434 790.784C9.80774 789.291 10.7099 787.256 10.78 785.11V713.47C10.7407 711.306 9.8531 709.243 8.30829 707.726C6.76348 706.21 4.68496 705.36 2.52002 705.36H0.869995V704.07H45.18Z" fill="white"/>
<path d="M164.81 794.44H98V793.15H99.63C101.798 793.151 103.879 792.3 105.425 790.781C106.972 789.263 107.861 787.198 107.9 785.03V713.48C107.861 711.313 106.972 709.248 105.425 707.729C103.879 706.211 101.798 705.36 99.63 705.36H98V704.07H137.21V705.36H135.58C133.412 705.36 131.331 706.211 129.785 707.729C128.238 709.248 127.349 711.313 127.31 713.48V788.92H144.2C157.1 788.92 165.47 780.92 169.47 768.1H170.76L164.81 794.44Z" fill="white"/>
<path d="M219.72 704.07V705.36H218.09C215.928 705.357 213.851 706.203 212.306 707.716C210.761 709.229 209.872 711.288 209.83 713.45V790.51C209.83 809.51 193.25 821.94 175.34 820.26V819.1C186.34 814.45 190.43 802.1 190.43 790.1V713.47C190.388 711.305 189.498 709.242 187.952 707.726C186.405 706.209 184.326 705.36 182.16 705.36H180.5V704.07H219.72Z" fill="white"/>
<path d="M359.35 704.07V705.36H358.19C354.51 705.36 350.07 707.48 347.33 712.55L316.76 780.12C315.84 782.12 310.76 793.27 310.41 797.02H309.25L270.13 712.76C267.33 707.53 262.92 705.36 259.13 705.36H258.13V704.07H299.2V705.35H298.07C294.73 705.35 291.28 708.27 293.07 713.44L315 766.8L337.75 713.44C339.87 708.27 336.14 705.35 332.81 705.35H331.67V704.07H359.35Z" fill="white"/>
<path d="M402.76 794.44H363.54V793.15H365.18C367.347 793.148 369.426 792.296 370.973 790.778C372.519 789.26 373.408 787.197 373.45 785.03V713.42C373.393 711.263 372.497 709.214 370.953 707.707C369.408 706.2 367.338 705.354 365.18 705.35H363.55V704.06H402.76V705.35H401.1C398.954 705.349 396.891 706.183 395.349 707.677C393.808 709.17 392.908 711.205 392.84 713.35V785C392.879 787.167 393.768 789.232 395.315 790.751C396.861 792.27 398.942 793.12 401.11 793.12H402.74L402.76 794.44Z" fill="white"/>
<path d="M467.6 748.11C475.28 753.11 479.74 759.87 479.19 769.52C478.4 786.34 465.73 796.24 445.08 796.24C433.5 796.24 422.66 793.24 417.94 788.41C415.81 783.01 417.63 772.13 421 766.49H422.14C421.14 779.95 431 791.06 446.49 790.8C457.71 790.6 464.33 784.38 464.32 776.29C464.32 771.06 460.94 767.56 454 762.96L431.51 748C422.63 742.11 418.21 734.25 419.15 724.84C420.25 711.47 430.05 702.24 446.33 702.24C452.209 702.37 458.077 702.811 463.91 703.56H472L470.31 722.56H469.06C469.06 713.56 461.78 707.7 450.87 707.7C440.7 707.7 434.28 713.18 433.97 720.11C433.65 725.2 437.56 728.6 442.97 732.11L467.6 748.11Z" fill="white"/>
<path d="M531.61 794.44H492.4V793.15H494.03C496.198 793.15 498.279 792.3 499.825 790.781C501.372 789.262 502.261 787.197 502.3 785.03V713.42C502.245 711.262 501.35 709.211 499.805 707.704C498.261 706.197 496.188 705.352 494.03 705.35H492.4V704.06H531.61V705.35H530C527.853 705.351 525.791 706.186 524.248 707.679C522.706 709.171 521.803 711.205 521.73 713.35V785C521.769 787.167 522.658 789.232 524.205 790.751C525.751 792.27 527.832 793.12 530 793.12H531.63L531.61 794.44Z" fill="white"/>
<path d="M644.71 749.26C644.71 778.26 624.93 796.26 593.92 796.26C562.91 796.26 543.13 778.26 543.13 749.26C543.13 720.26 562.91 702.26 593.92 702.26C624.93 702.26 644.71 720.25 644.71 749.26ZM623.53 749.26C623.53 723.62 612.12 707.7 593.92 707.7C575.72 707.7 564.31 723.62 564.31 749.26C564.31 774.9 575.72 790.81 593.92 790.81C612.12 790.81 623.53 774.89 623.53 749.26Z" fill="white"/>
<path d="M758.09 704.07V705.36H755.71C753.636 705.359 751.642 706.163 750.15 707.603C748.657 709.044 747.783 711.007 747.71 713.08V779.78C747.665 785.306 748.164 790.822 749.2 796.25H748L682.77 734.13V785.37C682.827 787.453 683.695 789.432 685.19 790.885C686.684 792.338 688.686 793.151 690.77 793.15H693.16V794.44H654.03V793.15H656.41C658.501 793.151 660.509 792.333 662.004 790.871C663.499 789.409 664.363 787.421 664.41 785.33V718.27C664.461 712.856 663.959 707.452 662.91 702.14H664.18L729.3 764.23V713.23C729.256 711.138 728.393 709.147 726.898 707.683C725.402 706.219 723.393 705.4 721.3 705.4H719V704.11L758.09 704.07Z" fill="white"/>
<path d="M821.49 748.11C829.17 753.11 833.63 759.87 833.08 769.52C832.3 786.34 819.62 796.24 798.98 796.24C787.4 796.24 776.55 793.24 771.84 788.41C769.7 783.01 771.52 772.13 774.9 766.49H776C775 779.95 784.86 791.06 800.35 790.8C811.57 790.6 818.19 784.38 818.19 776.29C818.19 771.06 814.8 767.56 807.87 762.96L785.4 748C776.52 742.11 772.1 734.25 773.05 724.84C774.15 711.47 783.94 702.24 800.22 702.24C806.099 702.37 811.967 702.81 817.8 703.56H825.91L824.22 722.56H823C823 713.56 815.72 707.7 804.8 707.7C794.64 707.7 788.21 713.18 787.9 720.11C787.59 725.2 791.49 728.6 796.9 732.11L821.49 748.11Z" fill="white"/>
<path d="M581 473.76C581.061 487.564 580.058 501.351 578 515C578.09 514.709 578.157 514.412 578.2 514.11L584.85 470.7L581 473.76Z" fill="white"/>
<path d="M320.59 321.28V313.09H255.08V102H310.72V88.79H163.38V97H204.17V545.19H163.38V553.38H295.92V545.19H255.08V321.28H320.59ZM545.33 516.68C524.61 516.68 513.96 504.1 513.96 469.52V449.69H457.38V462C457.38 517.25 483.77 533 525.9 533C531.124 533.045 536.34 532.599 541.48 531.67C546.421 530.778 550.963 528.376 554.481 524.794C557.999 521.211 560.318 516.626 561.12 511.67L561.17 511.53C556.643 515.024 551.046 516.843 545.33 516.68ZM385.75 316.25V313.73C471.83 313.73 513.96 269.09 513.96 207.53C514.029 198.248 513.219 188.98 511.54 179.85C508.43 162.85 502.27 148.78 493.29 137.14C471.29 108.23 432.47 94.47 381.95 90.2701V106.06C425.56 115.18 457.38 141.77 457.38 205.65C457.38 275.01 422.9 302.98 372.09 310.65V321.65C437.94 324.46 457.38 343.2 457.38 397.27V414.48C478.59 411.82 495.02 405.61 507.5 395.48L512.77 391.19C506.51 333.57 473.41 316.25 385.75 316.25Z" fill="white"/>
<path d="M431.23 426H372.09V331.54H371.59C366.22 331.25 360.1 331.15 352.45 331.15H320.59V431.63H279.74V439.82H457.38V424.48C448.702 425.518 439.969 426.026 431.23 426ZM556.23 297.84C551.1 346.43 540.1 382.1 513.71 403.21C513.86 406.96 513.96 410.85 513.96 414.9V439.9H563.78V297.9L556.23 297.84ZM337.41 102H320.59V303.23H337.41C348.503 303.3 359.585 302.524 370.56 300.91L372.09 300.66V104.28C360.601 102.679 349.01 101.917 337.41 102ZM279.74 0V8.19H320.59V88.79H343.67C353.49 88.79 362.963 89.0533 372.09 89.58V8.19H412.34V0H279.74Z" fill="white"/>
<path d="M514 414.86V439.86H457.42V424.48C481.49 421.62 499.79 414.48 513.75 403.17C513.86 406.92 514 410.81 514 414.86Z" fill="white"/>
<path d="M372.09 310.68V321.68C365.97 321.38 359.41 321.28 352.45 321.28H320.59V313.09H337.41C349.014 313.166 360.608 312.36 372.09 310.68Z" fill="white"/>
<path d="M372.09 89.58V104.28C360.601 102.679 349.01 101.917 337.41 102H320.59V88.79H343.67C353.49 88.79 362.963 89.0534 372.09 89.58Z" fill="white"/>
<path d="M511.54 179.85H492.16V137.14H493.29C502.27 148.78 508.43 162.89 511.54 179.85Z" fill="white"/>
<path d="M522.34 154.4C523.34 157.06 524.34 159.78 525.16 162.59H581.05V471.69C581.05 472.38 581.05 473.07 581.05 473.76C581.111 487.563 580.108 501.351 578.05 515C577.9 515.79 577.8 516.58 577.6 517.37C568.48 569.9 540.75 589.19 492.46 589.19C444.17 589.19 407.66 557.77 378.76 452.25H372.44V566C418.32 584.84 462.32 598.65 492.44 598.65C600.52 598.65 632.54 549.65 632.54 430.29V162.59H673.38V154.4H522.34Z" fill="white"/>
</svg>
